<svg id="svg" version="1.1" xmlns="http://www.w3.org/2000/svg" xmlns:xlink="http://www.w3.org/1999/xlink" width="400" height="285.7142857142857" viewBox="0, 0, 400,285.7142857142857"><g id="svgg"><path id="path0" d="M361.619 5.359 C 358.581 8.298,355.307 11.384,354.343 12.217 C 350.401 15.624,347.179 21.425,347.251 24.984 C 347.268 25.839,347.442 25.386,347.992 23.048 C 351.516 8.079,370.445 3.204,380.414 14.698 C 390.573 26.410,384.278 45.294,369.429 47.652 C 367.700 47.926,367.280 48.283,368.888 48.111 C 374.239 47.537,379.625 43.985,382.762 38.961 C 383.339 38.037,385.519 35.820,391.762 29.807 L 400.000 21.873 400.000 10.936 L 400.000 0.000 383.571 0.008 L 367.143 0.015 361.619 5.359 " stroke="none" fill="#515959" fill-rule="evenodd"></path><path id="path1" d="M363.714 14.218 C 358.468 15.063,353.997 18.830,352.332 23.810 C 352.270 23.995,351.273 24.351,349.499 24.823 C 347.994 25.223,268.740 47.723,173.381 74.823 L -0.000 124.095 0.048 143.248 L 0.095 162.401 60.444 224.057 L 120.793 285.714 207.779 285.714 L 294.766 285.714 331.135 167.571 C 351.139 102.593,367.587 49.086,367.688 48.667 C 367.788 48.248,368.264 46.590,368.745 44.983 L 369.620 42.062 370.578 41.650 C 380.532 37.370,382.504 24.130,374.206 17.286 C 371.403 14.974,367.007 13.689,363.714 14.218 " stroke="none" fill="#ebdbb3" fill-rule="evenodd"></path><path id="path2" d="M364.624 8.397 C 356.809 9.138,350.081 15.051,347.996 23.012 C 347.789 23.804,347.619 24.641,347.619 24.871 L 347.619 25.289 349.817 24.668 C 352.380 23.945,352.119 24.129,352.762 22.604 C 356.599 13.509,368.418 11.189,375.298 18.179 C 382.407 25.403,380.005 37.838,370.762 41.658 L 369.810 42.052 369.032 44.407 C 368.605 45.702,368.193 47.008,368.118 47.309 L 367.981 47.856 368.895 47.727 C 389.258 44.861,391.109 14.472,371.257 8.970 C 370.023 8.628,369.404 8.535,366.857 8.308 C 366.490 8.275,365.486 8.315,364.624 8.397 " stroke="none" fill="#747c7c" fill-rule="evenodd"></path><path id="path3" d="" stroke="none" fill="#74747c" fill-rule="evenodd"></path><path id="path4" d="" stroke="none" fill="#90928b" fill-rule="evenodd"></path></g></svg>